<svg width="190" height="67" viewBox="0 0 190 67" fill="none" xmlns="http://www.w3.org/2000/svg">
<path d="M181.22 26.245H183.09V23.2837L184.686 25.8466H184.785L186.381 23.2837V26.245H188.251V20.4214H186.132L184.737 22.6366L183.39 20.4214H181.222V26.245H181.22ZM176.31 26.245H178.429V22.1621H180.249V20.4188H174.49V22.1621H176.31V26.245Z" fill="white"/>
<path d="M130.563 0.166992V63.7191H116.077V61.1765C113.444 63.2801 109.23 65.0335 104.928 65.0335C92.5488 65.0335 84.7367 54.5155 84.7367 41.9802C84.7367 29.4448 92.5514 19.0131 104.928 19.0131C109.23 19.0131 113.004 20.2413 116.077 22.8701V0.166992H130.563ZM116.077 36.0195C113.881 33.652 111.162 32.6015 108.526 32.6015C103.609 32.6015 99.6596 36.2834 99.6596 41.9802C99.6596 47.6769 103.611 51.4476 108.526 51.4476C111.159 51.4476 113.881 50.3083 116.077 47.9408V36.0195Z" fill="white"/>
<path d="M149.658 19.0131C144.558 19.0131 139.056 20.155 134.723 21.7486V35.2558C138.464 33.3019 142.855 31.721 147.902 31.721C153.521 31.721 155.364 34.525 155.364 37.3314V39.5239C152.731 38.1206 150.009 36.895 145.267 36.895C136.575 36.895 129.376 41.7163 129.376 50.3946C129.376 59.7732 135.785 65.0335 144.388 65.0335C149.742 65.0335 153.956 63.2801 156.502 61.1765V63.7191H169.847V34.4412C169.847 26.2019 162.21 19.0131 149.656 19.0131H149.658ZM155.364 51.8841C153.958 53.1985 151.501 54.3379 148.868 54.3379C145.971 54.3379 143.338 52.8483 143.338 49.8668C143.338 47.2379 145.971 45.6596 148.868 45.6596C151.501 45.6596 153.961 46.7126 155.364 47.9383V51.8841Z" fill="white"/>
<path d="M0 43.0561C0 29.5565 9.83253 20.3529 22.6512 20.3529C36.5219 20.3529 44.423 29.8204 44.423 43.0561C44.423 44.1091 44.3366 46.299 44.2477 47.0882H14.9254C15.1897 52.3484 20.4554 54.7134 24.9333 54.7134C30.288 54.7134 35.0301 53.399 40.6466 50.0672V62.0773C36.5194 64.531 31.6044 66.3733 23.0019 66.3733C10.3611 66.3733 0 57.8701 0 43.0561ZM31.8789 40.5693C31.579 36.7655 29.0884 31.013 23.406 31.013C18.3232 31.013 15.2329 36.7655 14.933 40.5693V39.6609C20.3614 36.9102 26.4505 36.9102 31.8789 39.6609V40.5693Z" fill="white"/>
<path d="M42.7281 43.0561C42.7281 29.5565 52.5607 20.3529 65.3793 20.3529C79.2501 20.3529 87.1512 29.8204 87.1512 43.0561C87.1512 44.1091 87.0648 46.299 86.9758 47.0882H57.6536C57.9179 52.3484 63.1836 54.7134 67.6615 54.7134C73.0161 54.7134 77.7583 53.399 83.3747 50.0672V62.0773C79.2475 64.531 74.3325 66.3733 65.73 66.3733C53.0893 66.3733 42.7281 57.8701 42.7281 43.0561ZM74.607 40.5693C74.3071 36.7655 71.8166 31.013 66.1341 31.013C61.0514 31.013 57.9611 36.7655 57.6612 40.5693V39.6609C63.0896 36.9102 69.1787 36.9102 74.607 39.6609V40.5693Z" fill="white"/>
<path d="M181.748 47.6465C177.191 47.6465 173.496 51.336 173.496 55.8858C173.496 60.4355 177.191 64.1251 181.748 64.1251C186.305 64.1251 190 60.4355 190 55.8858C190 51.336 186.305 47.6465 181.748 47.6465ZM181.748 59.9458C179.502 59.9458 177.682 58.1289 177.682 55.8858H185.817C185.817 58.1289 183.997 59.9458 181.751 59.9458H181.748Z" fill="#70D3D4"/>
</svg>
